<mxfile host="app.diagrams.net" modified="2022-05-17T09:18:48.254Z" agent="5.0 (Macintosh; Intel Mac OS X 10_15_7) AppleWebKit/537.36 (KHTML, like Gecko) Chrome/101.0.4951.54 Safari/537.36" etag="msGXWC5VlmthxNYuZc8Y" version="18.0.3" type="github">
  <diagram id="H-JxIq9hDwRm9EaQoew5" name="Page-1">
    <mxGraphModel dx="912" dy="852" grid="0" gridSize="10" guides="1" tooltips="1" connect="1" arrows="1" fold="1" page="0" pageScale="1" pageWidth="850" pageHeight="1100" math="0" shadow="0">
      <root>
        <mxCell id="0" />
        <mxCell id="1" parent="0" />
        <mxCell id="-WDhDGiW_aDV9kdZC9Ua-2" value="LoremIpsum Client" style="shape=ext;double=1;rounded=1;whiteSpace=wrap;html=1;verticalAlign=top;" vertex="1" parent="1">
          <mxGeometry x="70" y="270" width="260" height="260" as="geometry" />
        </mxCell>
        <mxCell id="-WDhDGiW_aDV9kdZC9Ua-3" value="LoremIpsum Server" style="shape=ext;double=1;rounded=1;whiteSpace=wrap;html=1;verticalAlign=top;" vertex="1" parent="1">
          <mxGeometry x="450" y="270" width="350" height="260" as="geometry" />
        </mxCell>
        <mxCell id="-WDhDGiW_aDV9kdZC9Ua-6" value="Frontend&lt;br&gt;(Webbrowser)" style="shape=ext;double=1;rounded=1;whiteSpace=wrap;html=1;fillColor=#fff2cc;strokeColor=#d6b656;" vertex="1" parent="1">
          <mxGeometry x="200" y="316" width="120" height="200" as="geometry" />
        </mxCell>
        <mxCell id="-WDhDGiW_aDV9kdZC9Ua-8" value="Spring&lt;br&gt;(Serializer)" style="rounded=1;whiteSpace=wrap;html=1;fillColor=#d5e8d4;strokeColor=#82b366;" vertex="1" parent="1">
          <mxGeometry x="480" y="340" width="110" height="50" as="geometry" />
        </mxCell>
        <mxCell id="-WDhDGiW_aDV9kdZC9Ua-9" value="Controller" style="rounded=1;whiteSpace=wrap;html=1;fillColor=#dae8fc;strokeColor=#6c8ebf;" vertex="1" parent="1">
          <mxGeometry x="680" y="340" width="100" height="50" as="geometry" />
        </mxCell>
        <mxCell id="-WDhDGiW_aDV9kdZC9Ua-10" value="Model" style="rounded=1;whiteSpace=wrap;html=1;fillColor=#e1d5e7;strokeColor=#9673a6;" vertex="1" parent="1">
          <mxGeometry x="679" y="450" width="100" height="50" as="geometry" />
        </mxCell>
        <mxCell id="-WDhDGiW_aDV9kdZC9Ua-11" value="JSON&lt;br&gt;Serialisierung" style="endArrow=classic;startArrow=classic;html=1;rounded=0;entryX=0;entryY=0.5;entryDx=0;entryDy=0;exitX=1;exitY=0.5;exitDx=0;exitDy=0;" edge="1" parent="1" source="-WDhDGiW_aDV9kdZC9Ua-8" target="-WDhDGiW_aDV9kdZC9Ua-9">
          <mxGeometry width="50" height="50" relative="1" as="geometry">
            <mxPoint x="550" y="250" as="sourcePoint" />
            <mxPoint x="600" y="200" as="targetPoint" />
          </mxGeometry>
        </mxCell>
        <mxCell id="-WDhDGiW_aDV9kdZC9Ua-12" value="" style="endArrow=classic;startArrow=classic;html=1;rounded=0;entryX=0.5;entryY=1;entryDx=0;entryDy=0;exitX=0.5;exitY=0;exitDx=0;exitDy=0;" edge="1" parent="1" source="-WDhDGiW_aDV9kdZC9Ua-10" target="-WDhDGiW_aDV9kdZC9Ua-9">
          <mxGeometry width="50" height="50" relative="1" as="geometry">
            <mxPoint x="720" y="460" as="sourcePoint" />
            <mxPoint x="770" y="410" as="targetPoint" />
          </mxGeometry>
        </mxCell>
        <mxCell id="-WDhDGiW_aDV9kdZC9Ua-13" value="Interagiert&amp;nbsp;&lt;br&gt;mit dem Model" style="edgeLabel;html=1;align=center;verticalAlign=middle;resizable=0;points=[];" vertex="1" connectable="0" parent="-WDhDGiW_aDV9kdZC9Ua-12">
          <mxGeometry x="0.2954" relative="1" as="geometry">
            <mxPoint as="offset" />
          </mxGeometry>
        </mxCell>
        <mxCell id="-WDhDGiW_aDV9kdZC9Ua-14" value="Nutzer Interaktion&lt;br&gt;(REST)" style="endArrow=classic;startArrow=classic;html=1;rounded=0;entryX=0;entryY=0.5;entryDx=0;entryDy=0;exitX=1;exitY=0.25;exitDx=0;exitDy=0;" edge="1" parent="1" source="-WDhDGiW_aDV9kdZC9Ua-6" target="-WDhDGiW_aDV9kdZC9Ua-8">
          <mxGeometry width="50" height="50" relative="1" as="geometry">
            <mxPoint x="440" y="320" as="sourcePoint" />
            <mxPoint x="490" y="270" as="targetPoint" />
          </mxGeometry>
        </mxCell>
        <mxCell id="-WDhDGiW_aDV9kdZC9Ua-15" value="" style="verticalLabelPosition=bottom;html=1;verticalAlign=top;align=center;strokeColor=none;fillColor=#00BEF2;shape=mxgraph.azure.computer;pointerEvents=1;" vertex="1" parent="1">
          <mxGeometry x="110" y="316" width="50" height="45" as="geometry" />
        </mxCell>
        <mxCell id="-WDhDGiW_aDV9kdZC9Ua-16" value="" style="verticalLabelPosition=bottom;html=1;verticalAlign=top;align=center;strokeColor=none;fillColor=#00BEF2;shape=mxgraph.azure.laptop;pointerEvents=1;" vertex="1" parent="1">
          <mxGeometry x="110" y="370" width="50" height="30" as="geometry" />
        </mxCell>
        <mxCell id="-WDhDGiW_aDV9kdZC9Ua-17" value="" style="verticalLabelPosition=bottom;html=1;verticalAlign=top;align=center;strokeColor=none;fillColor=#00BEF2;shape=mxgraph.azure.tablet;pointerEvents=1;" vertex="1" parent="1">
          <mxGeometry x="110" y="412.5" width="50" height="37.5" as="geometry" />
        </mxCell>
        <mxCell id="-WDhDGiW_aDV9kdZC9Ua-19" value="" style="endArrow=classic;startArrow=classic;html=1;rounded=0;exitX=1;exitY=0.5;exitDx=0;exitDy=0;exitPerimeter=0;entryX=-0.012;entryY=0.107;entryDx=0;entryDy=0;entryPerimeter=0;" edge="1" parent="1" source="-WDhDGiW_aDV9kdZC9Ua-15" target="-WDhDGiW_aDV9kdZC9Ua-6">
          <mxGeometry width="50" height="50" relative="1" as="geometry">
            <mxPoint x="210" y="250" as="sourcePoint" />
            <mxPoint x="260" y="200" as="targetPoint" />
          </mxGeometry>
        </mxCell>
        <mxCell id="-WDhDGiW_aDV9kdZC9Ua-20" value="" style="endArrow=classic;startArrow=classic;html=1;rounded=0;exitX=0.92;exitY=0.5;exitDx=0;exitDy=0;exitPerimeter=0;entryX=-0.012;entryY=0.107;entryDx=0;entryDy=0;entryPerimeter=0;" edge="1" parent="1" source="-WDhDGiW_aDV9kdZC9Ua-16">
          <mxGeometry width="50" height="50" relative="1" as="geometry">
            <mxPoint x="160" y="385.55" as="sourcePoint" />
            <mxPoint x="198.55999999999995" y="384.4500000000001" as="targetPoint" />
          </mxGeometry>
        </mxCell>
        <mxCell id="-WDhDGiW_aDV9kdZC9Ua-21" value="" style="endArrow=classic;startArrow=classic;html=1;rounded=0;exitX=1;exitY=0.5;exitDx=0;exitDy=0;exitPerimeter=0;entryX=-0.012;entryY=0.107;entryDx=0;entryDy=0;entryPerimeter=0;fontStyle=0" edge="1" parent="1">
          <mxGeometry width="50" height="50" relative="1" as="geometry">
            <mxPoint x="160" y="431.8" as="sourcePoint" />
            <mxPoint x="198.55999999999995" y="430.7000000000001" as="targetPoint" />
          </mxGeometry>
        </mxCell>
        <mxCell id="-WDhDGiW_aDV9kdZC9Ua-22" value="" style="endArrow=classic;startArrow=classic;html=1;rounded=0;exitX=1.019;exitY=0.496;exitDx=0;exitDy=0;exitPerimeter=0;entryX=-0.016;entryY=0.842;entryDx=0;entryDy=0;entryPerimeter=0;fontStyle=1" edge="1" parent="1" target="-WDhDGiW_aDV9kdZC9Ua-6">
          <mxGeometry width="50" height="50" relative="1" as="geometry">
            <mxPoint x="144.34199999999987" y="484.8800000000001" as="sourcePoint" />
            <mxPoint x="198.55999999999995" y="484.4500000000001" as="targetPoint" />
          </mxGeometry>
        </mxCell>
        <mxCell id="-WDhDGiW_aDV9kdZC9Ua-24" value="" style="verticalLabelPosition=bottom;html=1;verticalAlign=top;align=center;strokeColor=none;fillColor=#00BEF2;shape=mxgraph.azure.mobile;pointerEvents=1;" vertex="1" parent="1">
          <mxGeometry x="110" y="458" width="35" height="50" as="geometry" />
        </mxCell>
      </root>
    </mxGraphModel>
  </diagram>
</mxfile>
